<svg width="433" height="312" viewBox="0 0 433 312" fill="none" xmlns="http://www.w3.org/2000/svg">
<path d="M311.76 186.011C280.006 205.705 242.48 222.809 199.18 237.32C155.88 251.832 126.292 241.985 110.415 207.779C94.5382 173.572 96.7032 141.957 116.91 112.934C137.117 83.9103 168.148 71.9899 210.005 77.1727C251.861 82.3554 287.223 96.8672 316.09 120.708C344.956 144.549 343.513 166.316 311.76 186.011Z" fill="url(#paint0_linear_2_5)"/>
<path d="M283.528 173.697C251.775 193.391 214.248 210.494 170.948 225.006C127.648 239.518 98.0599 229.671 82.1833 195.464C66.3066 161.258 68.4716 129.643 88.6783 100.62C108.885 71.596 139.917 59.6756 181.773 64.8584C223.63 70.0412 258.992 84.5529 287.858 108.394C316.725 132.234 315.282 154.002 283.528 173.697Z" stroke="#332E97"/>
<defs>
<linearGradient id="paint0_linear_2_5" x1="73.9999" y1="39.6395" x2="282.934" y2="273.714" gradientUnits="userSpaceOnUse">
<stop offset="0.13" stop-color="#67B637"/>
<stop offset="1" stop-color="#2C277F"/>
</linearGradient>
</defs>
</svg>
