<svg xmlns="http://www.w3.org/2000/svg" version="1.1" xmlns:xlink="http://www.w3.org/1999/xlink" xmlns:svgjs="http://svgjs.dev/svgjs" width="2000" height="803" viewBox="0 0 2000 803"><g transform="matrix(1,0,0,1,-1.2121212121212466,7.795631025151749)"><svg viewBox="0 0 396 159" data-background-color="#61777f" preserveAspectRatio="xMidYMid meet" height="803" width="2000" xmlns="http://www.w3.org/2000/svg" xmlns:xlink="http://www.w3.org/1999/xlink"><g id="tight-bounds" transform="matrix(1,0,0,1,0.2400000000000091,0.12263228324113129)"><svg viewBox="0 0 395.52 151.69669579367934" height="151.69669579367934" width="395.52"><g><svg viewBox="0 0 524.0688967156294 200.99999999999997" height="151.69669579367934" width="395.52"><g><rect width="8.494302433301065" height="200.99999999999997" x="152.97033987768174" y="0" fill="#000000" opacity="1" stroke-width="0" stroke="transparent" fill-opacity="1" class="rect-yte-0" data-fill-palette-color="primary" rx="1%" id="yte-0" data-palette-color="#ffffff"></rect></g><g transform="matrix(1,0,0,1,183.70103611543587,0.4999999999999858)"><svg viewBox="0 0 340.3678606001936 200" height="200" width="340.3678606001936"><g id="textblocktransform"><svg viewBox="0 0 340.3678606001936 200" height="200" width="340.3678606001936" id="textblock"><g><svg viewBox="0 0 340.3678606001936 200" height="200" width="340.3678606001936"><g transform="matrix(1,0,0,1,0,0)"><svg width="340.3678606001936" viewBox="1.75 -38.6 175.95000000000002 90.75" height="200" data-palette-color="#ffffff"><svg></svg><svg></svg><g class="wordmark-text-0" data-fill-palette-color="primary" id="text-0"><path d="M4.7 0v-35h15.3c3.733 0 7.05 0.723 9.95 2.17 2.9 1.453 5.15 3.503 6.75 6.15 1.6 2.653 2.4 5.713 2.4 9.18v0c0 3.467-0.8 6.523-2.4 9.17-1.6 2.653-3.85 4.703-6.75 6.15-2.9 1.453-6.217 2.18-9.95 2.18v0zM11.2-5.5h8.5c2.567 0 4.827-0.493 6.78-1.48 1.947-0.98 3.447-2.38 4.5-4.2 1.047-1.813 1.57-3.92 1.57-6.32v0c0-2.4-0.523-4.51-1.57-6.33-1.053-1.813-2.553-3.213-4.5-4.2-1.953-0.98-4.213-1.47-6.78-1.47v0h-8.5zM70.5-13.2c0 0.433-0.033 1.05-0.1 1.85v0h-20.95c0.367 1.967 1.327 3.523 2.88 4.67 1.547 1.153 3.47 1.73 5.77 1.73v0c2.933 0 5.35-0.967 7.25-2.9v0l3.35 3.85c-1.2 1.433-2.717 2.517-4.55 3.25-1.833 0.733-3.9 1.1-6.2 1.1v0c-2.933 0-5.517-0.583-7.75-1.75-2.233-1.167-3.957-2.793-5.17-4.88-1.22-2.08-1.83-4.437-1.83-7.07v0c0-2.6 0.593-4.943 1.78-7.03 1.18-2.08 2.82-3.703 4.92-4.87 2.1-1.167 4.467-1.75 7.1-1.75v0c2.6 0 4.927 0.573 6.98 1.72 2.047 1.153 3.647 2.77 4.8 4.85 1.147 2.087 1.72 4.497 1.72 7.23zM57-22c-2 0-3.69 0.59-5.07 1.77-1.387 1.187-2.23 2.763-2.53 4.73v0h15.15c-0.267-1.933-1.083-3.5-2.45-4.7-1.367-1.2-3.067-1.8-5.1-1.8zM84.75 0.35c-2.167 0-4.283-0.283-6.35-0.85-2.067-0.567-3.717-1.283-4.95-2.15v0l2.4-4.75c1.2 0.8 2.643 1.44 4.33 1.92 1.68 0.487 3.337 0.73 4.97 0.73v0c3.733 0 5.6-0.983 5.6-2.95v0c0-0.933-0.473-1.583-1.42-1.95-0.953-0.367-2.48-0.717-4.58-1.05v0c-2.2-0.333-3.99-0.717-5.37-1.15-1.387-0.433-2.587-1.193-3.6-2.28-1.02-1.08-1.53-2.587-1.53-4.52v0c0-2.533 1.06-4.56 3.18-6.08 2.113-1.513 4.97-2.27 8.57-2.27v0c1.833 0 3.667 0.207 5.5 0.62 1.833 0.42 3.333 0.98 4.5 1.68v0l-2.4 4.75c-2.267-1.333-4.817-2-7.65-2v0c-1.833 0-3.223 0.273-4.17 0.82-0.953 0.553-1.43 1.28-1.43 2.18v0c0 1 0.51 1.71 1.53 2.13 1.013 0.413 2.587 0.803 4.72 1.17v0c2.133 0.333 3.883 0.717 5.25 1.15 1.367 0.433 2.543 1.167 3.53 2.2 0.98 1.033 1.47 2.5 1.47 4.4v0c0 2.5-1.083 4.5-3.25 6-2.167 1.5-5.117 2.25-8.85 2.25zM102.25 0v-26.7h6.25v26.7zM105.4-31.1c-1.133 0-2.083-0.36-2.85-1.08-0.767-0.713-1.15-1.603-1.15-2.67v0c0-1.067 0.383-1.957 1.15-2.67 0.767-0.72 1.717-1.08 2.85-1.08v0c1.133 0 2.083 0.34 2.85 1.02 0.767 0.687 1.15 1.547 1.15 2.58v0c0 1.1-0.373 2.023-1.12 2.77-0.753 0.753-1.713 1.13-2.88 1.13zM137.25-26.7h5.95v22.65c0 9.4-4.8 14.1-14.4 14.1v0c-2.567 0-5-0.323-7.3-0.97-2.3-0.653-4.2-1.597-5.7-2.83v0l2.8-4.7c1.167 0.967 2.643 1.743 4.43 2.33 1.78 0.58 3.587 0.87 5.42 0.87v0c2.933 0 5.083-0.667 6.45-2 1.367-1.333 2.05-3.367 2.05-6.1v0-1.4c-1.067 1.167-2.367 2.05-3.9 2.65-1.533 0.6-3.217 0.9-5.05 0.9v0c-2.533 0-4.823-0.543-6.87-1.63-2.053-1.08-3.67-2.603-4.85-4.57-1.187-1.967-1.78-4.217-1.78-6.75v0c0-2.533 0.593-4.777 1.78-6.73 1.18-1.947 2.797-3.453 4.85-4.52 2.047-1.067 4.337-1.6 6.87-1.6v0c1.933 0 3.693 0.317 5.28 0.95 1.58 0.633 2.903 1.6 3.97 2.9v0zM128.95-6.5c2.367 0 4.31-0.71 5.83-2.13 1.513-1.413 2.27-3.253 2.27-5.52v0c0-2.233-0.757-4.05-2.27-5.45-1.52-1.4-3.463-2.1-5.83-2.1v0c-2.4 0-4.357 0.7-5.87 2.1-1.52 1.4-2.28 3.217-2.28 5.45v0c0 2.267 0.76 4.107 2.28 5.52 1.513 1.42 3.47 2.13 5.87 2.13zM166.55-27c3.367 0 6.067 0.983 8.1 2.95 2.033 1.967 3.05 4.883 3.05 8.75v0 15.3h-6.25v-14.5c0-2.333-0.55-4.093-1.65-5.28-1.1-1.18-2.667-1.77-4.7-1.77v0c-2.3 0-4.117 0.69-5.45 2.07-1.333 1.387-2 3.38-2 5.98v0 13.5h-6.25v-26.7h5.95v3.45c1.033-1.233 2.333-2.167 3.9-2.8 1.567-0.633 3.333-0.95 5.3-0.95z" fill="#000000" fill-rule="nonzero" stroke="none" stroke-width="1" stroke-linecap="butt" stroke-linejoin="miter" stroke-miterlimit="10" stroke-dasharray="" stroke-dashoffset="0" font-family="none" font-weight="none" font-size="none" text-anchor="none" style="mix-blend-mode: normal" data-fill-palette-color="primary" opacity="1"></path><path transform="translate(0,51.65)" d="M15.55 0.5c-2.7 0-5.307-0.383-7.82-1.15-2.52-0.767-4.513-1.783-5.98-3.05v0l2.25-5.05c1.433 1.133 3.193 2.057 5.28 2.77 2.08 0.72 4.17 1.08 6.27 1.08v0c2.6 0 4.543-0.417 5.83-1.25 1.28-0.833 1.92-1.933 1.92-3.3v0c0-1-0.357-1.827-1.07-2.48-0.72-0.647-1.63-1.153-2.73-1.52-1.1-0.367-2.6-0.783-4.5-1.25v0c-2.667-0.633-4.823-1.267-6.47-1.9-1.653-0.633-3.07-1.627-4.25-2.98-1.187-1.347-1.78-3.17-1.78-5.47v0c0-1.933 0.527-3.693 1.58-5.28 1.047-1.58 2.63-2.837 4.75-3.77 2.113-0.933 4.703-1.4 7.77-1.4v0c2.133 0 4.233 0.267 6.3 0.8 2.067 0.533 3.85 1.3 5.35 2.3v0l-2.05 5.05c-1.533-0.9-3.133-1.583-4.8-2.05-1.667-0.467-3.283-0.7-4.85-0.7v0c-2.567 0-4.473 0.433-5.72 1.3-1.253 0.867-1.88 2.017-1.88 3.45v0c0 1 0.36 1.817 1.08 2.45 0.713 0.633 1.62 1.133 2.72 1.5 1.1 0.367 2.6 0.783 4.5 1.25v0c2.6 0.6 4.733 1.223 6.4 1.87 1.667 0.653 3.093 1.647 4.28 2.98 1.18 1.333 1.77 3.133 1.77 5.4v0c0 1.933-0.523 3.683-1.57 5.25-1.053 1.567-2.647 2.817-4.78 3.75-2.133 0.933-4.733 1.4-7.8 1.4zM49.85-5.9l1.75 4.45c-0.733 0.6-1.623 1.05-2.67 1.35-1.053 0.3-2.163 0.45-3.33 0.45v0c-2.933 0-5.2-0.767-6.8-2.3-1.6-1.533-2.4-3.767-2.4-6.7v0-12.85h-4.4v-5h4.4v-6.1h6.25v6.1h7.15v5h-7.15v12.7c0 1.3 0.317 2.29 0.95 2.97 0.633 0.687 1.55 1.03 2.75 1.03v0c1.4 0 2.567-0.367 3.5-1.1zM80.95-13.2c0 0.433-0.033 1.05-0.1 1.85v0h-20.95c0.367 1.967 1.327 3.523 2.88 4.67 1.547 1.153 3.47 1.73 5.77 1.73v0c2.933 0 5.35-0.967 7.25-2.9v0l3.35 3.85c-1.2 1.433-2.717 2.517-4.55 3.25-1.833 0.733-3.9 1.1-6.2 1.1v0c-2.933 0-5.517-0.583-7.75-1.75-2.233-1.167-3.957-2.793-5.17-4.88-1.22-2.08-1.83-4.437-1.83-7.07v0c0-2.6 0.593-4.943 1.78-7.03 1.18-2.08 2.82-3.703 4.92-4.87 2.1-1.167 4.467-1.75 7.1-1.75v0c2.6 0 4.927 0.573 6.98 1.72 2.047 1.153 3.647 2.77 4.8 4.85 1.147 2.087 1.72 4.497 1.72 7.23zM67.45-22c-2 0-3.69 0.59-5.07 1.77-1.387 1.187-2.23 2.763-2.53 4.73v0h15.15c-0.267-1.933-1.083-3.5-2.45-4.7-1.367-1.2-3.067-1.8-5.1-1.8zM96.4-27c3.933 0 6.943 0.94 9.03 2.82 2.08 1.887 3.12 4.73 3.12 8.53v0 15.65h-5.9v-3.25c-0.767 1.167-1.857 2.057-3.27 2.67-1.42 0.62-3.13 0.93-5.13 0.93v0c-2 0-3.75-0.343-5.25-1.03-1.5-0.68-2.657-1.63-3.47-2.85-0.82-1.213-1.23-2.587-1.23-4.12v0c0-2.4 0.893-4.327 2.68-5.78 1.78-1.447 4.587-2.17 8.42-2.17v0h6.9v-0.4c0-1.867-0.557-3.3-1.67-4.3-1.12-1-2.78-1.5-4.98-1.5v0c-1.5 0-2.973 0.233-4.42 0.7-1.453 0.467-2.68 1.117-3.68 1.95v0l-2.45-4.55c1.4-1.067 3.083-1.883 5.05-2.45 1.967-0.567 4.05-0.85 6.25-0.85zM95.55-4.2c1.567 0 2.96-0.36 4.18-1.08 1.213-0.713 2.07-1.737 2.57-3.07v0-3.1h-6.45c-3.6 0-5.4 1.183-5.4 3.55v0c0 1.133 0.45 2.033 1.35 2.7 0.9 0.667 2.15 1 3.75 1zM116.55 0v-37.1h6.25v37.1zM156.1-13.2c0 0.433-0.033 1.05-0.1 1.85v0h-20.95c0.367 1.967 1.327 3.523 2.88 4.67 1.547 1.153 3.47 1.73 5.77 1.73v0c2.933 0 5.35-0.967 7.25-2.9v0l3.35 3.85c-1.2 1.433-2.717 2.517-4.55 3.25-1.833 0.733-3.9 1.1-6.2 1.1v0c-2.933 0-5.517-0.583-7.75-1.75-2.233-1.167-3.957-2.793-5.17-4.88-1.22-2.08-1.83-4.437-1.83-7.07v0c0-2.6 0.593-4.943 1.78-7.03 1.18-2.08 2.82-3.703 4.92-4.87 2.1-1.167 4.467-1.75 7.1-1.75v0c2.6 0 4.927 0.573 6.98 1.72 2.047 1.153 3.647 2.77 4.8 4.85 1.147 2.087 1.72 4.497 1.72 7.23zM142.6-22c-2 0-3.69 0.59-5.07 1.77-1.387 1.187-2.23 2.763-2.53 4.73v0h15.15c-0.267-1.933-1.083-3.5-2.45-4.7-1.367-1.2-3.067-1.8-5.1-1.8zM168.05-22.8c1.8-2.8 4.967-4.2 9.5-4.2v0 5.95c-0.533-0.1-1.017-0.15-1.45-0.15v0c-2.433 0-4.333 0.71-5.7 2.13-1.367 1.413-2.05 3.453-2.05 6.12v0 12.95h-6.25v-26.7h5.95z" fill="#000000" fill-rule="nonzero" stroke="none" stroke-width="1" stroke-linecap="butt" stroke-linejoin="miter" stroke-miterlimit="10" stroke-dasharray="" stroke-dashoffset="0" font-family="none" font-weight="none" font-size="none" text-anchor="none" style="mix-blend-mode: normal" data-fill-palette-color="primary" opacity="1"></path></g></svg></g></svg></g></svg></g></svg></g><g transform="matrix(1,0,0,1,0,3.499999999999986)"><svg viewBox="0 0 130.73394607322868 194" height="194" width="130.73394607322868"><g><svg xmlns="http://www.w3.org/2000/svg" xmlns:xlink="http://www.w3.org/1999/xlink" version="1.1" x="0" y="0" viewBox="8.462 0.12 33.883004167845044 50.28" enable-background="new 0 0 50.4 50.4" xml:space="preserve" id="icon-0" width="130.73394607322868" height="194" class="icon-icon-0" data-fill-palette-color="accent"><g fill="#ffffff" data-fill-palette-color="accent"><path d="M33.773 18.787H33.457L25.48 28.49 17.42 18.787H17.042C12.15 18.787 8.462 21.615 8.462 26.607V47.08A3.034 3.034 0 0 0 14.528 47.08L14.53 28.771H16.433V50.4H34.375V28.771H36.272L36.282 47.08A3.032 3.032 0 1 0 42.344 47.08V26.606C42.346 21.614 38.66 18.787 33.773 18.787" fill="#000000" data-fill-palette-color="accent"></path><path d="M33.691 14.694A1.46 1.46 0 0 0 32.537 14.37L32.551 7.264A7.146 7.146 0 0 0 25.408 0.12C21.467 0.12 18.275 3.318 18.275 7.264L18.252 14.355A1.37 1.37 0 0 0 17.204 14.695 1.47 1.47 0 0 0 17.018 16.737L25.477 26.92 33.936 16.628C34.351 16.014 34.269 15.185 33.691 14.694M20.452 8.619A1 1 0 0 1 21.453 7.618H23.705A1 1 0 1 1 23.705 9.62H21.453A1 1 0 0 1 20.452 8.619M25.416 15.664A1.79 1.79 0 1 1 25.417 12.087 1.79 1.79 0 0 1 25.416 15.664M29.296 9.62H27.043A1 1 0 1 1 27.043 7.618H29.296A1 1 0 1 1 29.296 9.62" fill="#000000" data-fill-palette-color="accent"></path></g></svg></g></svg></g></svg></g><defs></defs></svg><rect width="395.52" height="151.69669579367934" fill="none" stroke="none" visibility="hidden"></rect></g></svg></g></svg>